<?xml version="1.0" encoding="iso-8859-1"?>
<!-- Generator: Adobe Illustrator 19.0.0, SVG Export Plug-In . SVG Version: 6.00 Build 0)  -->
<svg version="1.1" id="Capa_1" xmlns="http://www.w3.org/2000/svg" xmlns:xlink="http://www.w3.org/1999/xlink" x="0px" y="0px"
	 viewBox="0 0 511.999 511.999" style="enable-background:new 0 0 511.999 511.999;" xml:space="preserve">
<path style="fill:#3D8299;" d="M423.102,162.271c-4.623-216.361-329.581-216.361-334.204,0c-0.05,2.361-0.076,4.727-0.076,7.099
	c0,122.39,67.442,229.012,167.178,284.782c99.736-55.77,167.178-162.391,167.178-284.782
	C423.177,166.998,423.153,164.631,423.102,162.271z"/>
<path style="fill:#025970;" d="M256,454.149C156.261,398.378,88.822,291.765,88.822,169.367c0-2.365,0.021-4.741,0.074-7.096
	C91.208,54.085,173.599,0.003,256,0.003c-64.325,0-128.628,54.083-130.434,162.268c-0.042,2.355-0.063,4.73-0.063,7.096
	C125.503,291.765,178.15,398.378,256,454.149z"/>
<circle style="fill:#EAEAEA;" cx="256.545" cy="171.795" r="117.621"/>
<g>
	<path style="fill:#EF4A6E;" d="M256,511.999c-71.609,0-147.716-20.274-147.716-57.847c0-11.846,7.875-28.827,45.393-42.451
		c4.006-1.454,8.434,0.613,9.89,4.621c1.455,4.008-0.614,8.435-4.621,9.89c-22.057,8.009-35.226,18.455-35.226,27.94
		c0,9.599,13.416,20.133,35.888,28.18c25.628,9.177,59.861,14.231,96.391,14.231c36.531,0,70.763-5.054,96.392-14.231
		c22.471-8.047,35.887-18.581,35.887-28.18c0-8.97-12.043-18.993-32.215-26.811c-3.975-1.541-5.948-6.011-4.408-9.987
		s6.014-5.946,9.986-4.408c34.775,13.478,42.075,29.847,42.075,41.206c0,11.951-8.002,29.064-46.12,42.714
		C330.34,506.624,294.259,511.999,256,511.999z"/>
	<path style="fill:#EF4A6E;" d="M256.432,242.857c0,0,114.553-40.987,83.024-105.094c-13.704-27.864-67.261-39.936-83.024,6.306
		h0.236c-15.764-46.242-69.321-34.17-83.024-6.306c-31.528,64.108,83.024,105.094,83.024,105.094"/>
</g>
<g>
</g>
<g>
</g>
<g>
</g>
<g>
</g>
<g>
</g>
<g>
</g>
<g>
</g>
<g>
</g>
<g>
</g>
<g>
</g>
<g>
</g>
<g>
</g>
<g>
</g>
<g>
</g>
<g>
</g>
</svg>
